<svg width="32" height="32" viewBox="0 0 32 32" fill="none" xmlns="http://www.w3.org/2000/svg">
<path d="M26 17C24.714 17.174 23.551 17.563 22.499 18.132L22.553 18.105C22.523 18.126 22.494 18.149 22.466 18.173C21.864 17.474 20.987 17.027 20.004 17H19.999C19.074 17.127 18.24 17.421 17.494 17.852L17.527 17.834C16.507 18.396 15.318 18.805 14.057 18.993L13.999 19C13.25 18.917 12.583 18.617 12.049 18.164L12.054 18.168C11.467 17.729 10.784 17.375 10.047 17.144L9.99902 17.131V17C9.99902 15.895 9.10402 15 7.99902 15H3.99902C2.89402 15 1.99902 15.895 1.99902 17V28C1.99902 29.105 2.89402 30 3.99902 30H7.99902C9.10402 30 9.99902 29.105 9.99902 28V27.2C10.618 27.429 11.13 27.662 11.623 27.924L11.552 27.89C12.538 28.496 13.713 28.895 14.971 28.998L14.999 29C16.61 29 21.681 26.527 23.199 25.77C29.999 22.368 29.999 21.577 29.999 21C30.012 20.886 30.019 20.755 30.019 20.621C30.019 18.744 28.598 17.198 26.773 17.001L26.757 17C26.643 16.988 26.512 16.98 26.378 16.98C26.244 16.98 26.113 16.987 25.983 17.001L25.999 17H26ZM4.00002 28V17H8.00002V28H4.00002ZM15 27C14.042 26.877 13.178 26.56 12.42 26.089L12.447 26.105C11.745 25.712 10.932 25.377 10.078 25.141L10 25.123V19.258C10.368 19.451 10.677 19.642 10.972 19.85L10.945 19.832C11.778 20.506 12.833 20.936 13.986 20.999L14 21C15.619 20.825 17.094 20.348 18.416 19.625L18.354 19.656C18.817 19.416 19.362 19.193 19.929 19.019L20 19C20.754 19 21.369 19.922 21.673 20.481L15.606 23.081C15.247 23.238 15 23.59 15 24C15 24.552 15.448 25 16 25C16.002 25 16.004 25 16.006 25C16.146 25 16.28 24.97 16.4 24.917L16.394 24.919L22.46 22.319C22.976 22.094 23.37 21.673 23.556 21.152L23.56 21.138C23.628 20.944 23.667 20.721 23.667 20.488C23.667 20.255 23.628 20.032 23.555 19.824L23.559 19.838C24.264 19.46 25.082 19.169 25.946 19.008L25.999 19C27.337 19 27.916 19.484 27.99 20.709C26.409 22.17 16.499 27 14.999 27H15Z" fill="#292929"/>
<path d="M16 16C12.134 16 9 12.866 9 9C9 5.134 12.134 2 16 2C19.866 2 23 5.134 23 9C23 12.866 19.866 16 16 16ZM16 4C13.239 4 11 6.239 11 9C11 11.761 13.239 14 16 14C18.761 14 21 11.761 21 9C21 6.239 18.761 4 16 4Z" fill="#292929"/>
<path d="M13.3069 9.908H12.4939L12.6299 9.367H13.2409C13.2409 9.301 13.2319 9.235 13.2319 9.167V8.963C13.2329 8.797 13.2419 8.633 13.2599 8.473L13.2579 8.493H12.4939L12.6299 7.952H13.3509C13.5979 6.766 14.6339 5.888 15.8759 5.888C15.9199 5.888 15.9629 5.889 16.0059 5.891H15.9999C16.0139 5.891 16.0299 5.891 16.0459 5.891C16.5839 5.891 17.0959 5.998 17.5639 6.191L17.5379 6.181L17.2119 7.17C17.1309 7.136 17.0309 7.101 16.9289 7.074L16.9119 7.07C16.6839 7.01 16.4169 6.966 16.1429 6.948L16.1299 6.947C16.0929 6.944 16.0499 6.942 16.0069 6.942C15.3649 6.942 14.8219 7.363 14.6379 7.943L14.6349 7.953H16.9209L16.7749 8.494H14.5199C14.5009 8.628 14.4879 8.786 14.4839 8.947V8.951C14.4839 8.956 14.4839 8.963 14.4839 8.969C14.4839 9.11 14.4939 9.248 14.5129 9.383L14.5109 9.367H16.4619L16.3219 9.908H14.5809C14.6119 10.647 15.2199 11.235 15.9639 11.235C16.0049 11.235 16.0459 11.233 16.0859 11.23H16.0809C16.0999 11.23 16.1229 11.231 16.1449 11.231C16.5449 11.231 16.9289 11.162 17.2849 11.035L17.2609 11.042L17.5809 12.042C17.0869 12.217 16.5169 12.321 15.9239 12.328H15.9209C15.8889 12.33 15.8509 12.33 15.8129 12.33C14.4579 12.33 13.3529 11.255 13.3069 9.911V9.907V9.908Z" fill="#292929"/>
</svg>
