<svg width="32" height="32" viewBox="0 0 32 32" fill="none" xmlns="http://www.w3.org/2000/svg">
<path d="M27.5 9.92989L28.7 8.72989C28.895 8.54689 29.017 8.28789 29.017 7.99989C29.017 7.44789 28.569 6.99989 28.017 6.99989C28.011 6.99989 28.005 6.99989 27.999 6.99989H25V3.99989C25 3.98889 25.001 3.97589 25.001 3.96289C25.001 3.41089 24.553 2.96289 24.001 2.96289C23.713 2.96289 23.453 3.08489 23.271 3.27989L23.27 3.28089L22.07 4.48089C20.308 3.52989 18.213 2.97089 15.988 2.97089C8.80804 2.97089 2.98804 8.79089 2.98804 15.9709C2.98804 23.1509 8.80804 28.9709 15.988 28.9709C23.168 28.9709 28.988 23.1509 28.988 15.9709C28.988 13.7629 28.437 11.6829 27.466 9.86089L27.5 9.93089V9.92989ZM24 8.99989H25.54L23.54 10.9999H21V8.42989L23 6.42989V7.99989C23 8.55189 23.448 8.99989 24 8.99989ZM16 26.9999C15.99 26.9999 15.979 26.9999 15.968 26.9999C9.89304 26.9999 4.96804 22.0749 4.96804 15.9999C4.96804 9.92489 9.89304 4.99989 15.968 4.99989C17.63 4.99989 19.206 5.36889 20.618 6.02789L20.55 5.99989L19.28 7.28989C19.107 7.46989 19 7.71389 19 7.98389C19 7.98989 19 7.99489 19 8.00089V7.99989V11.5799L15.3 15.2699C15.116 15.4539 15.002 15.7089 15.002 15.9899C15.002 16.5519 15.458 17.0079 16.02 17.0079C16.301 17.0079 16.556 16.8939 16.74 16.7099L20.41 12.9999H24C24.002 12.9999 24.004 12.9999 24.006 12.9999C24.286 12.9999 24.539 12.8849 24.72 12.6999L26 11.4499C26.622 12.7859 26.985 14.3509 26.985 15.9999C26.985 22.0699 22.069 26.9919 16.001 26.9999H16V26.9999ZM24 15.9999C24 20.4179 20.418 23.9999 16 23.9999C11.582 23.9999 8.00004 20.4179 8.00004 15.9999C8.00004 11.5819 11.582 7.99989 16 7.99989C16.552 7.99989 17 8.44789 17 8.99989C17 9.55189 16.552 9.99989 16 9.99989C12.686 9.99989 10 12.6859 10 15.9999C10 19.3139 12.686 21.9999 16 21.9999C19.314 21.9999 22 19.3139 22 15.9999C22 15.4479 22.448 14.9999 23 14.9999C23.552 14.9999 24 15.4479 24 15.9999Z" fill="#292929"/>
</svg>
