<svg width="32" height="32" viewBox="0 0 32 32" fill="none" xmlns="http://www.w3.org/2000/svg">
<path d="M11 29.494C6.029 29.494 2 25.465 2 20.494C2 15.523 6.029 11.494 11 11.494C15.971 11.494 20 15.523 20 20.494C20 25.465 15.971 29.494 11 29.494ZM11 13.494C7.134 13.494 4 16.628 4 20.494C4 24.36 7.134 27.494 11 27.494C14.866 27.494 18 24.36 18 20.494C18 16.628 14.866 13.494 11 13.494Z" fill="#292929"/>
<path d="M29.0001 23.5H28.0001V20.5C28.0001 19.948 27.5521 19.5 27.0001 19.5H21.4501C21.4811 19.827 21.5001 20.158 21.5001 20.494C21.5001 20.83 21.4811 21.168 21.4491 21.5H26.0001V23.5H21.0561C20.8261 24.267 20.5441 24.93 20.2001 25.553L20.2271 25.5H28.0001V27.5H18.8001C18.1021 28.273 17.3031 28.936 16.4191 29.474L16.3721 29.5H29.0001C29.5521 29.5 30.0001 29.052 30.0001 28.5V24.5C30.0001 23.948 29.5521 23.5 29.0001 23.5Z" fill="#292929"/>
<path d="M27.707 6.793L23.707 2.793C23.526 2.612 23.276 2.5 23 2.5C22.724 2.5 22.474 2.612 22.293 2.793L18.293 6.793C18.119 6.973 18.012 7.218 18.012 7.488C18.012 8.04 18.46 8.488 19.012 8.488C19.282 8.488 19.527 8.381 19.707 8.207L22 5.914V14.494C22 15.046 22.448 15.494 23 15.494C23.552 15.494 24 15.046 24 14.494V5.914L26.293 8.207C26.473 8.381 26.718 8.488 26.988 8.488C27.54 8.488 27.988 8.04 27.988 7.488C27.988 7.218 27.881 6.973 27.707 6.793V6.793Z" fill="#292929"/>
<path d="M11 26.489C10.724 26.489 10.5 26.265 10.5 25.989C10.5 25.713 10.724 25.489 11 25.489C13.76 25.486 15.997 23.249 16 20.489C16 20.213 16.224 19.989 16.5 19.989C16.776 19.989 17 20.213 17 20.489C16.997 23.802 14.313 26.486 11 26.489Z" fill="#292929"/>
</svg>
