<svg width="32" height="32" viewBox="0 0 32 32" fill="none" xmlns="http://www.w3.org/2000/svg">
<path d="M27 5H22V4C22 3.448 21.552 3 21 3C20.448 3 20 3.448 20 4V5H12V4C12 3.448 11.552 3 11 3C10.448 3 10 3.448 10 4V5H5C3.895 5 3 5.895 3 7V27C3 28.105 3.895 29 5 29H27C28.105 29 29 28.105 29 27V7C29 5.895 28.105 5 27 5ZM10 7V8C10 8.552 10.448 9 11 9C11.552 9 12 8.552 12 8V7H20V8C20 8.552 20.448 9 21 9C21.552 9 22 8.552 22 8V7H27V11H5V7H10ZM5 27V13H27V27H5Z" fill="#292929"/>
<path d="M15.499 23H16.501C16.777 23 17 23.223 17 23.499V24.501C17 24.777 16.777 25 16.501 25H15.499C15.223 25 15 24.777 15 24.501V23.499C15 23.223 15.223 23 15.499 23Z" fill="#292929"/>
<path d="M19.499 23H20.501C20.777 23 21 23.223 21 23.499V24.501C21 24.777 20.777 25 20.501 25H19.499C19.223 25 19 24.777 19 24.501V23.499C19 23.223 19.223 23 19.499 23Z" fill="#292929"/>
<path d="M11.499 23H12.501C12.777 23 13 23.223 13 23.499V24.501C13 24.777 12.777 25 12.501 25H11.499C11.223 25 11 24.777 11 24.501V23.499C11 23.223 11.223 23 11.499 23Z" fill="#292929"/>
<path d="M15.499 19H16.501C16.777 19 17 19.223 17 19.499V20.501C17 20.777 16.777 21 16.501 21H15.499C15.223 21 15 20.777 15 20.501V19.499C15 19.223 15.223 19 15.499 19Z" fill="#292929"/>
<path d="M19.499 19H20.501C20.777 19 21 19.223 21 19.499V20.501C21 20.777 20.777 21 20.501 21H19.499C19.223 21 19 20.777 19 20.501V19.499C19 19.223 19.223 19 19.499 19Z" fill="#292929"/>
<path d="M11.499 19H12.501C12.777 19 13 19.223 13 19.499V20.501C13 20.777 12.777 21 12.501 21H11.499C11.223 21 11 20.777 11 20.501V19.499C11 19.223 11.223 19 11.499 19Z" fill="#292929"/>
<path d="M7.499 23H8.501C8.777 23 9 23.223 9 23.499V24.501C9 24.777 8.777 25 8.501 25H7.499C7.223 25 7 24.777 7 24.501V23.499C7 23.223 7.223 23 7.499 23Z" fill="#292929"/>
<path d="M7.499 19H8.501C8.777 19 9 19.223 9 19.499V20.501C9 20.777 8.777 21 8.501 21H7.499C7.223 21 7 20.777 7 20.501V19.499C7 19.223 7.223 19 7.499 19Z" fill="#292929"/>
<path d="M15.499 15H16.501C16.777 15 17 15.223 17 15.499V16.501C17 16.777 16.777 17 16.501 17H15.499C15.223 17 15 16.777 15 16.501V15.499C15 15.223 15.223 15 15.499 15Z" fill="#292929"/>
<path d="M19.499 15H20.501C20.777 15 21 15.223 21 15.499V16.501C21 16.777 20.777 17 20.501 17H19.499C19.223 17 19 16.777 19 16.501V15.499C19 15.223 19.223 15 19.499 15Z" fill="#292929"/>
<path d="M23.499 19H24.501C24.777 19 25 19.223 25 19.499V20.501C25 20.777 24.777 21 24.501 21H23.499C23.223 21 23 20.777 23 20.501V19.499C23 19.223 23.223 19 23.499 19Z" fill="#292929"/>
<path d="M23.499 15H24.501C24.777 15 25 15.223 25 15.499V16.501C25 16.777 24.777 17 24.501 17H23.499C23.223 17 23 16.777 23 16.501V15.499C23 15.223 23.223 15 23.499 15Z" fill="#292929"/>
<path d="M11.499 15H12.501C12.777 15 13 15.223 13 15.499V16.501C13 16.777 12.777 17 12.501 17H11.499C11.223 17 11 16.777 11 16.501V15.499C11 15.223 11.223 15 11.499 15Z" fill="#292929"/>
</svg>
