<svg width="32" height="32" viewBox="0 0 32 32" fill="none" xmlns="http://www.w3.org/2000/svg">
<path d="M29.693 18.268L27.162 7.4C26.873 6.277 25.87 5.461 24.676 5.461C24.258 5.461 23.864 5.561 23.515 5.738L23.53 5.731L22.091 6.45C21.781 6.607 21.573 6.923 21.573 7.288C21.573 7.699 21.838 8.049 22.207 8.175L22.214 8.177C22.303 8.208 22.405 8.226 22.511 8.226C22.664 8.226 22.808 8.189 22.935 8.124L22.93 8.126L24.369 7.406C24.459 7.361 24.566 7.334 24.678 7.334C24.783 7.334 24.883 7.357 24.973 7.399L24.969 7.397C25.156 7.484 25.294 7.646 25.347 7.844L25.348 7.849L27.46 16.92H19.21C18.104 16.92 17.161 17.621 16.802 18.602L16.796 18.62C16.557 18.571 16.282 18.543 16.001 18.543C15.72 18.543 15.445 18.571 15.18 18.625L15.206 18.621C14.841 17.622 13.898 16.921 12.792 16.921H4.54598L6.65698 7.853C6.73598 7.553 7.00498 7.335 7.32398 7.335C7.43598 7.335 7.54298 7.362 7.63598 7.41L7.63198 7.408L9.07098 8.127C9.19298 8.19 9.33598 8.228 9.48898 8.228C9.59598 8.228 9.69798 8.21 9.79298 8.176L9.78698 8.178C10.161 8.049 10.426 7.7 10.426 7.289C10.426 6.925 10.218 6.609 9.91498 6.453L9.90998 6.451L8.47098 5.731C8.13698 5.561 7.74398 5.462 7.32698 5.462C6.12698 5.462 5.11898 6.286 4.83898 7.4L4.83498 7.418L2.30798 18.27C2.11498 18.622 2.00098 19.042 2.00098 19.489C2.00098 19.666 2.01898 19.838 2.05298 20.005L2.04998 19.988L2.76398 23.559C3.16498 25.491 4.85098 26.923 6.87198 26.927H10.484C12.505 26.923 14.191 25.491 14.587 23.586L14.592 23.559L15.192 20.567C15.433 20.474 15.711 20.42 16.003 20.42C16.295 20.42 16.573 20.474 16.829 20.572L16.813 20.567L17.413 23.559C17.814 25.491 19.5 26.923 21.521 26.927H25.133C27.154 26.923 28.84 25.491 29.236 23.586L29.241 23.559L29.955 19.989C29.986 19.84 30.003 19.669 30.003 19.493C30.003 19.045 29.888 18.623 29.687 18.256L29.694 18.269L29.693 18.268ZM28.113 19.619L27.4 23.19C27.179 24.257 26.248 25.048 25.131 25.051H21.517C20.4 25.048 19.469 24.257 19.25 23.205L19.247 23.19L18.532 19.619C18.524 19.578 18.519 19.532 18.519 19.484C18.519 19.103 18.828 18.794 19.209 18.794H27.437C27.818 18.794 28.126 19.103 28.126 19.484C28.126 19.532 28.121 19.578 28.112 19.623L28.113 19.619V19.619ZM13.467 19.619L12.753 23.19C12.531 24.257 11.6 25.048 10.483 25.051H6.87098C5.75398 25.049 4.82198 24.258 4.60298 23.205L4.59998 23.19L3.88598 19.619C3.87798 19.578 3.87298 19.532 3.87298 19.484C3.87298 19.103 4.18198 18.794 4.56198 18.794H12.79C12.79 18.794 12.79 18.794 12.791 18.794C13.172 18.794 13.48 19.102 13.48 19.483C13.48 19.531 13.475 19.578 13.466 19.623L13.467 19.619V19.619Z" fill="#292929"/>
</svg>
