<svg width="32" height="32" viewBox="0 0 32 32" fill="none" xmlns="http://www.w3.org/2000/svg">
<path d="M4.052 26.6859L6.015 20.7999C5.385 19.3899 5.018 17.7449 5.018 16.0139C5.018 9.39193 10.386 4.02393 17.008 4.02393C23.63 4.02393 28.998 9.39193 28.998 16.0139C28.998 22.6359 23.63 28.0039 17.008 28.0039C14.65 28.0039 12.45 27.3229 10.596 26.1469L10.645 26.1759L5.314 27.9529C5.22 27.9849 5.112 28.0029 5 28.0029C4.448 28.0029 4 27.5549 4 27.0029C4 26.8889 4.019 26.7799 4.054 26.6779L4.052 26.6849V26.6859ZM27 15.9999C26.994 10.4739 22.513 5.99693 16.986 5.99693C16.368 5.99693 15.763 6.05293 15.176 6.15993L15.237 6.15093C10.509 7.09193 6.995 11.2079 6.995 16.1439C6.995 16.2519 6.997 16.3589 7 16.4659V16.4499C6.996 16.5509 6.994 16.6699 6.994 16.7899C6.994 18.3259 7.366 19.7749 8.025 21.0519L8.001 20.9999L6.582 25.4189L11.001 23.9999C12.669 25.2059 14.744 25.9479 16.989 25.9999H17.001C22.521 25.9929 26.994 21.5199 27.001 16.0009V15.9999H27Z" fill="#292929"/>
<path d="M16.001 15.999C16.001 16.551 16.449 16.999 17.001 16.999C17.553 16.999 18.001 16.551 18.001 15.999C18.001 15.447 17.553 14.999 17.001 14.999C16.449 14.999 16.001 15.447 16.001 15.999V15.999Z" fill="#292929"/>
<path d="M20.001 15.999C20.001 16.551 20.449 16.999 21.001 16.999C21.553 16.999 22.001 16.551 22.001 15.999C22.001 15.447 21.553 14.999 21.001 14.999C20.449 14.999 20.001 15.447 20.001 15.999V15.999Z" fill="#292929"/>
<path d="M12.001 15.999C12.001 16.551 12.449 16.999 13.001 16.999C13.553 16.999 14.001 16.551 14.001 15.999C14.001 15.447 13.553 14.999 13.001 14.999C12.449 14.999 12.001 15.447 12.001 15.999V15.999Z" fill="#292929"/>
</svg>
