<svg width="190" height="140" viewBox="0 0 190 140" fill="none" xmlns="http://www.w3.org/2000/svg">
<path d="M104.3 92.3C104.3 87.2 100.1 83 95 83C89.9 83 85.7 87.2 85.7 92.3C85.7 95.3 87.2 98 89.4 99.7L88 109.9V110C88 110.6 88.4 111 89 111C89.2 111 89.4 110.9 89.5 110.9L94.9 107.7L100.3 110.9C100.4 111 100.6 111 100.8 111C101.4 111 101.8 110.6 101.8 110V109.9L100.4 99.7C102.8 98 104.3 95.3 104.3 92.3ZM87.7 92.3C87.7 88.3 91 85 95 85C99 85 102.3 88.3 102.3 92.3C102.3 96.3 99 99.6 95 99.6C91 99.6 87.7 96.3 87.7 92.3ZM99.5999 108.1L95.5 105.6C95.4 105.5 95.2 105.5 95 105.5C94.8 105.5 94.6 105.6 94.5 105.6L90.4 108.1L91.4 100.8C92.5 101.3 93.6999 101.6 95.0999 101.6C96.3999 101.6 97.6999 101.3 98.7999 100.8H98.7L99.5999 108.1Z" fill="#FF0000"/>
<path d="M79.8 78.6999C79.6 78.4999 79.3 78.3999 79 78.3999C78.3 78.3999 77.8 78.8999 77.8 79.5999C77.8 79.8999 77.9 80.1999 78.1 80.3999L80.9 83.1999C81.1 83.3999 81.4 83.4999 81.8 83.4999C82.5 83.4999 83 82.9999 83 82.2999C83 81.9999 82.9001 81.6999 82.6 81.4999L79.8 78.6999Z" fill="#BEBEBE"/>
<path d="M111.2 78.1001C110.8 78.1001 110.5 78.2001 110.3 78.5001L107.3 81.4001C107.1 81.6001 106.9 81.9001 106.9 82.3001C106.9 83.0001 107.5 83.5001 108.2 83.5001C108.5 83.5001 108.9 83.4001 109.1 83.1001L112.1 80.2001C112.4 80.0001 112.5 79.6001 112.5 79.3001C112.5 78.6001 111.9 78.1001 111.2 78.1001Z" fill="#BEBEBE"/>
<path d="M95.8 71.8999C95.3 71.3999 94.6 71.3999 94.1 71.8999C93.9 72.0999 93.8 72.3999 93.8 72.6999V76.5999C93.8 76.8999 93.9001 77.1999 94.2001 77.4999C94.7001 77.9999 95.4001 77.9999 95.9001 77.4999C96.1001 77.2999 96.2001 76.9999 96.2001 76.6999V72.7999C96.2001 72.3999 96 72.0999 95.8 71.8999Z" fill="#BEBEBE"/>
<path fill-rule="evenodd" clip-rule="evenodd" d="M55 39H135C137.2 39 139 40.8 139 43V90C139 92.2 137.2 94 135 94H106.2C106.2 93.7 106.225 93.425 106.25 93.15C106.275 92.875 106.3 92.6 106.3 92.3V92H135C136.1 92 137 91.1 137 90V43C137 41.9 136.1 41 135 41H55C53.9 41 53 41.9 53 43V90C53 91.1 53.9 92 55 92H83.7V92.3C83.7 92.9 83.7 93.4 83.8 94H55C52.8 94 51 92.2 51 90V43C51 40.8 52.8 39 55 39ZM102.9 52C103.5 52 103.9 51.6 103.9 51C103.9 50.4 103.5 50 102.9 50H86.8999C86.2999 50 85.8999 50.4 85.8999 51C85.8999 51.6 86.2999 52 86.8999 52H102.9ZM75.8999 58C75.2999 58 74.8999 57.6 74.8999 57C74.8999 56.4 75.3999 56 75.8999 56H113.9C114.5 56 114.9 56.4 114.9 57C114.9 57.6 114.5 58 113.9 58H75.8999ZM108.9 62H80.8999C80.3999 62 79.8999 61.6 79.8999 61C79.8999 60.4 80.2999 60 80.8999 60H108.9C109.5 60 109.9 60.4 109.9 61C109.9 61.6 109.5 62 108.9 62Z" fill="#292929"/>
</svg>
