<svg width="190" height="139" viewBox="0 0 190 139" fill="none" xmlns="http://www.w3.org/2000/svg">
<path d="M63.05 95.2C63.25 95.2 63.55 95.1 63.65 95L93.85 68.1L108.25 69.9C108.35 69.9 108.45 70 108.55 70C108.75 70 109.05 69.9 109.25 69.8L135.65 44.2V46C135.65 46.6 136.05 47 136.65 47C137.25 47 137.65 46.6 137.65 46V42C137.65 41.9 137.65 41.8 137.55 41.7C137.55 41.6 137.45 41.5 137.35 41.5C137.35 41.5 137.35 41.4 137.25 41.4C137.15 41.3 137.15 41.3 137.05 41.3C136.95 41.1 136.85 41 136.65 41H132.65C132.05 41 131.65 41.4 131.65 42C131.65 42.6 132.05 43 132.65 43H134.05L108.45 67.8L94.05 66.1C93.95 66.1 93.85 66 93.65 66C93.45 66 93.15 66.1 93.05 66.2L62.45 93.5C62.25 93.7 62.05 94 62.05 94.3C62.05 94.5 62.15 94.8 62.25 94.9C62.45 95.1 62.75 95.2 63.05 95.2Z" fill="#FF0000"/>
<path d="M141.55 51.1C141.35 51 141.25 51 141.05 51C140.75 51 140.55 51.1 140.35 51.2L111.85 78.9L96.4501 77C96.3501 77 96.15 77 96.05 77C95.85 77 95.55 77.1 95.35 77.2L74.35 96.2C74.15 96.4 74.05 96.7 74.05 97C74.05 97.1 74.05 97.2 74.15 97.3C74.25 97.7 74.65 98 75.05 98C75.05 98 75.05 98 75.15 98H141.15C141.75 98 142.15 97.6 142.15 97V52C142.05 51.6 141.85 51.2 141.55 51.1ZM140.05 96H77.85L96.25 79.1L111.75 81C111.85 81 111.95 81.1 112.05 81.1C112.35 81.1 112.55 81 112.75 80.8L140.05 54.2V96Z" fill="#292929"/>
<path d="M64.35 66.7L63.05 65.4V81C63.05 81.6 62.65 82 62.05 82C61.45 82 61.05 81.6 61.05 81V65.4L59.75 66.7C59.55 66.9 59.35 67 59.05 67C58.75 67 58.55 66.9 58.35 66.7C58.15 66.5 58.05 66.3 58.05 66C58.05 65.7 58.15 65.5 58.35 65.3L61.35 62.3C61.55 62.1 61.75 62 62.05 62C62.35 62 62.55 62.1 62.75 62.3L65.75 65.3C65.95 65.5 66.05 65.7 66.05 66C66.05 66.3 65.95 66.5 65.75 66.7C65.55 66.9 65.35 67 65.05 67C64.75 67 64.55 66.9 64.35 66.7Z" fill="#BEBEBE"/>
<path d="M74.35 56.7L73.05 55.4V71C73.05 71.6 72.65 72 72.05 72C71.45 72 71.05 71.6 71.05 71V55.4L69.75 56.7C69.55 56.9 69.35 57 69.05 57C68.75 57 68.55 56.9 68.35 56.7C68.15 56.5 68.05 56.3 68.05 56C68.05 55.7 68.15 55.5 68.35 55.3L71.35 52.3C71.55 52.1 71.75 52 72.05 52C72.35 52 72.55 52.1 72.75 52.3L75.75 55.3C75.95 55.5 76.05 55.7 76.05 56C76.05 56.3 75.95 56.5 75.75 56.7C75.55 56.9 75.35 57 75.05 57C74.75 57 74.55 56.9 74.35 56.7Z" fill="#BEBEBE"/>
<path d="M54.35 56.7L53.05 55.4V71C53.05 71.6 52.65 72 52.05 72C51.45 72 51.05 71.6 51.05 71V55.4L49.75 56.7C49.55 56.9 49.35 57 49.05 57C48.75 57 48.55 56.9 48.35 56.7C48.15 56.5 48.05 56.3 48.05 56C48.05 55.7 48.15 55.5 48.35 55.3L51.35 52.3C51.55 52.1 51.75 52 52.05 52C52.35 52 52.55 52.1 52.75 52.3L55.75 55.3C55.95 55.5 56.05 55.7 56.05 56C56.05 56.3 55.95 56.5 55.75 56.7C55.55 56.9 55.35 57 55.05 57C54.75 57 54.55 56.9 54.35 56.7Z" fill="#BEBEBE"/>
</svg>
