<svg width="190" height="139" viewBox="0 0 190 139" fill="none" xmlns="http://www.w3.org/2000/svg">
<path d="M128.5 70H94.5V36H95.5C113.5 36.6 128 51 128.5 69V70ZM96.5 68H126.5C125.5 51.9 112.6 39.1 96.5 38.1V68Z" fill="#FF0000"/>
<path d="M61.5 72V73C62.1 89.3 75.2 102.5 91.5 103H92.5V72H61.5ZM90.5 100.9C76.1 100 64.6 88.4 63.6 74H90.5V100.9Z" fill="#BEBEBE"/>
<path d="M94.5 97V72H119.5V73C119 86 108.5 96.5 95.6 97H94.5ZM96.5 74V94.9C107.5 93.9 116.5 85 117.4 74H96.5Z" fill="#292929"/>
<path d="M79 46C73.2 46 68.5 50.7 68.5 56.5C68.5 62.3 73.2 67 79 67C84.8 67 89.5 62.3 89.5 56.5C89.5 50.7 84.8 46 79 46ZM79 65C74.3 65 70.5 61.2 70.5 56.5C70.5 51.8 74.3 48 79 48C83.7 48 87.5 51.8 87.5 56.5C87.5 61.2 83.7 65 79 65Z" fill="#292929"/>
<path d="M69.4001 49.3002C69.1001 49.2002 68.8001 49.0002 68.6001 48.7002L70.5001 48.1002C70.6001 48.0002 70.7001 47.9002 70.8001 47.9002L70.7001 47.0002L68.1001 47.9002L68.0001 47.6002L67.9001 47.4002C67.9001 47.4002 67.9001 47.3002 67.9001 47.2002L70.7001 46.2002L70.6001 45.1002L67.7001 46.2002C67.7001 46.2002 67.7001 46.2002 67.7001 46.1002C67.7001 45.7002 67.8001 45.3002 68.1001 44.9002C68.4001 44.6002 68.7001 44.3002 69.1001 44.2002C69.4001 44.2002 69.6001 44.1002 69.9001 44.0002C70.1001 44.0002 70.3001 44.0002 70.5001 44.0002C70.5001 44.0002 70.5001 44.0002 70.6001 44.0002V42.7002C70.3001 42.7002 70.0001 42.7002 69.7001 42.8002C69.3001 42.8002 68.9001 42.9002 68.6001 43.1002C68.2001 43.2002 67.9001 43.4002 67.6001 43.6002C67.3001 43.8002 67.1001 44.1002 66.9001 44.3002C66.6001 44.7002 66.5001 45.0002 66.4001 45.4002C66.3001 45.6002 66.3001 45.9002 66.3001 46.2002C66.3001 46.4002 66.3001 46.6002 66.3001 46.7002L65.6001 47.0002V48.1002L66.5001 47.8002C66.5001 47.9002 66.5001 47.9002 66.5001 48.0002L66.6001 48.2002L66.7001 48.5002L66.1001 48.7002V49.8002L67.1001 49.4002C67.3001 49.8002 67.6001 50.1002 68.0001 50.4002C68.2001 50.5002 68.3001 50.6002 68.5001 50.7002C68.9001 50.1002 69.1001 49.7002 69.4001 49.3002Z" fill="#292929"/>
<path d="M63.9 49.1C63.7 48.5 63.5 47.8 63.5 47C63.5 44.4 65.1 42.2 67.4 41.4C68.1 41.2 68.8 41 69.5 41C72.1 41 74.3 42.6 75.1 44.9C75.1 45 75.1 45 75.2 45.1C75.7 44.9 76.4 44.7 77.1 44.6H77.2C77.2 44.5 77.1 44.3 77.1 44.2C75.9 41.2 73 39 69.5 39C65.1 39 61.5 42.6 61.5 47C61.5 50.6 63.9 53.6 67.1 54.6H67.2C67.3 53.9 67.5 53.2 67.7 52.6V52.7C65.9 52.1 64.5 50.8 63.9 49.1Z" fill="#292929"/>
<path d="M75 57.9001H73.6L73.8 57.0001H74.8C74.8 56.9001 74.8 56.8001 74.8 56.7001V56.3001C74.8 56.0001 74.8 55.7001 74.8 55.5001H73.5L73.7 54.6001H74.9C75.3 52.6001 77.1 51.1001 79.2 51.1001C79.3 51.1001 79.3 51.1001 79.4 51.1001C79.4 51.1001 79.4 51.1001 79.5 51.1001C80.4 51.1001 81.3 51.3001 82.1 51.6001L81.5 53.3001C81.4 53.2001 81.2 53.2001 81 53.1001C80.6 53.0001 80.2 52.9001 79.7 52.9001C79.6 52.9001 79.6 52.9001 79.5 52.9001C78.4 52.9001 77.5 53.6001 77.2 54.6001H81.1L80.9 55.5001H77.1C77.1 55.7001 77 56.0001 77 56.3001C77 56.5001 77 56.8001 77 57.0001H80.3L80.1 57.9001H77.1C77.2 59.2001 78.2 60.2001 79.5 60.2001H79.6H79.7H79.8C80.5 60.2001 81.1 60.1001 81.8 59.9001L82.3 61.6001C81.5 61.8001 80.5 62.0001 79.5 62.0001C77.4 62.0001 75.5 61.0001 75 57.9001Z" fill="#292929"/>
</svg>
