<svg width="190" height="139" viewBox="0 0 190 139" fill="none" xmlns="http://www.w3.org/2000/svg">
<path d="M71.5999 84.5C71.3999 84.5 71.1999 84.4 70.9999 84.3C70.5999 83.9 70.4999 83.3 70.8999 82.9L73.3999 79.8C73.7999 79.4 74.3999 79.3 74.7999 79.7C75.1999 80.1 75.2999 80.7 74.8999 81.1L72.3999 84.2C72.0999 84.4 71.7999 84.5 71.5999 84.5ZM76.5999 78.3C76.3999 78.3 76.1999 78.2 75.9999 78.1C75.5999 77.7 75.4999 77.1 75.8999 76.7L78.3999 73.6C78.7999 73.2 79.3999 73.1 79.7999 73.5C80.1999 73.9 80.2999 74.5 79.8999 74.9L77.3999 78C77.1999 78.2 76.8999 78.3 76.5999 78.3ZM108.8 75.4C108.6 75.4 108.4 75.3 108.2 75.2L105.1 72.6C104.7 72.2 104.6 71.6 105 71.2C105.4 70.8 106 70.7 106.4 71.1L109.5 73.7C109.9 74.1 110 74.7 109.6 75.1C109.4 75.3 109.1 75.4 108.8 75.4ZM81.6999 72.1C81.4999 72.1 81.2999 72 81.0999 71.9C80.6999 71.5 80.5999 70.9 80.9999 70.5L83.4999 67.4C83.8999 67 84.4999 66.9 84.8999 67.3C85.2999 67.7 85.3999 68.3 84.9999 68.7L82.4999 71.8C82.2999 72 81.9999 72.1 81.6999 72.1ZM118 68.3C117.8 68.3 117.6 68.2 117.4 68.1C117 67.8 116.9 67.1 117.2 66.7L119.7 63.6C120 63.2 120.7 63.1 121.1 63.4C121.5 63.7 121.6 64.4 121.3 64.8L118.8 67.9C118.6 68.2 118.3 68.4 118 68.3ZM102.7 70.2C102.5 70.2 102.3 70.1 102.1 70L98.9999 67.4C98.5999 67 98.4999 66.4 98.8999 66C99.2999 65.6 99.8999 65.5 100.3 65.9L103.4 68.5C103.8 68.9 103.9 69.5 103.5 69.9C103.3 70.1 103 70.2 102.7 70.2ZM96.5999 65C96.3999 65 96.1999 64.9 95.9999 64.8L92.8999 62.2C92.4999 61.8 92.3999 61.2 92.7999 60.8C93.1999 60.4 93.7999 60.3 94.1999 60.7L97.2999 63.3C97.6999 63.7 97.7999 64.3 97.3999 64.7C97.1999 64.9 96.8999 65.1 96.5999 65ZM86.7999 66C86.5999 66 86.3999 65.9 86.1999 65.8C85.7999 65.4 85.6999 64.8 86.0999 64.4L88.5999 61.3C88.9999 60.9 89.5999 60.8 89.9999 61.2C90.3999 61.6 90.4999 62.2 90.0999 62.6L87.5999 65.7C87.3999 65.8 87.0999 66 86.7999 66ZM123 62.1C122.8 62.1 122.6 62 122.4 61.9C122 61.6 121.9 60.9 122.2 60.5L124.7 57.4C125 57 125.7 56.9 126.1 57.2C126.5 57.5 126.6 58.2 126.3 58.6L123.8 61.7C123.6 62 123.3 62.1 123 62.1ZM128 55.8C127.8 55.8 127.6 55.7 127.4 55.6C127 55.3 126.9 54.6 127.2 54.2L129.7 51.1C130 50.7 130.7 50.6 131.1 50.9C131.5 51.2 131.6 51.9 131.3 52.3L128.8 55.4C128.6 55.7 128.3 55.8 128 55.8ZM113 74.6C112.8 74.6 112.6 74.5 112.4 74.4C112 74.1 111.9 73.4 112.2 73L114.7 69.9C115 69.5 115.7 69.4 116.1 69.7C116.5 70 116.6 70.7 116.3 71.1L113.8 74.2C113.6 74.5 113.3 74.7 113 74.6Z" fill="#FF0000"/>
<path d="M148 44.6001C148 38.8001 143.3 34.1001 137.5 34.1001C132.2 34.1001 127.9 38.0001 127.1 43.0001H61V36.1001C61 35.8001 60.9 35.6001 60.7 35.4001C60.5 35.2001 60.3 35.1001 60 35.1001C57.6 35.1001 55.3 36.0001 53.6 37.7001C52 39.4001 51 41.6001 51 44.0001V90.2001C51 92.6001 52 94.8001 53.6 96.5001C55.3 98.2001 57.6 99.1001 60 99.1001H138C138.1 99.1001 138.3 99.1001 138.4 99.0001C138.5 99.0001 138.6 98.9001 138.7 98.8001C138.8 98.7001 138.9 98.6001 138.9 98.5001C138.9 98.4001 139 98.3001 139 98.1001V55.0001C144.1 54.3001 148 49.9001 148 44.6001ZM53 44.0001C53 42.3001 53.6 40.7001 54.7 39.5001C55.8 38.2001 57.4 37.4001 59 37.1001V81.2001C57.8 81.3001 56.7 81.7001 55.6 82.3001C54.6 82.9001 53.6 83.6001 52.9 84.6001L53 44.0001ZM60 97.2001C58.1 97.2001 56.3 96.5001 55 95.2001C53.7 93.8001 53 92.1001 53 90.2001V90.0001C53 88.2001 53.7 86.4001 55.1 85.1001C56.4 83.8001 58.2 83.1001 60.1 83.1001C60.4 83.1001 60.6 83.0001 60.8 82.8001C61 82.6001 61.1 82.4001 61.1 82.1001V45.0001H127.1C127.3 50.5001 131.6 54.9001 137.1 55.1001V97.2001H60ZM137.5 53.1001C132.8 53.1001 129 49.3001 129 44.6001C129 39.9001 132.8 36.1001 137.5 36.1001C142.2 36.1001 146 39.9001 146 44.6001C146 49.3001 142.2 53.1001 137.5 53.1001Z" fill="black"/>
<path d="M133.5 46.0002H132.1L132.3 45.1002H133.3C133.3 45.0002 133.3 44.9002 133.3 44.8002V44.4002C133.3 44.1002 133.3 43.8002 133.3 43.6002H132L132.2 42.7002H133.4C133.8 40.7002 135.6 39.2002 137.7 39.2002C137.8 39.2002 137.8 39.2002 137.9 39.2002C137.9 39.2002 137.9 39.2002 138 39.2002C138.9 39.2002 139.8 39.4002 140.6 39.7002L140 41.4002C139.9 41.3002 139.7 41.3002 139.5 41.2002C139.1 41.1002 138.7 41.0002 138.2 41.0002C138.1 41.0002 138.1 41.0002 138 41.0002C136.9 41.0002 136 41.7002 135.7 42.7002H139.6L139.4 43.6002H135.6C135.6 43.8002 135.5 44.1002 135.5 44.4002C135.5 44.6002 135.5 44.9002 135.5 45.1002H138.8L138.6 46.0002H135.6C135.7 47.3002 136.7 48.3002 138 48.3002H138.1H138.2H138.3C139 48.3002 139.6 48.2002 140.3 48.0002L140.8 49.7002C140 50.0002 139 50.2002 138 50.2002C135.9 50.1002 134 49.1002 133.5 46.0002Z" fill="black"/>
<path d="M149.2 32.0002C149.9 32.0002 150.6 32.0002 151.3 32.3002C153.8 33.1002 155.4 35.2002 155.5 37.7002C155.5 38.4002 155.5 39.1002 155.2 39.8002C154.4 42.3002 152.3 43.9002 149.8 44.0002C149.7 44.0002 149.7 44.0002 149.6 44.0002C149.6 44.6002 149.6 45.3002 149.5 45.9002V46.0002C149.6 46.0002 149.8 46.0002 149.9 46.0002C153.2 45.8002 156.1 43.6002 157.1 40.4002C158.4 36.2002 156 31.7002 151.8 30.4002C148.4 29.4002 144.8 30.7002 142.9 33.5002V33.6002C143.6 33.9002 144.2 34.3002 144.7 34.7002H144.6C145.7 33.0002 147.4 32.1002 149.2 32.0002Z" fill="black"/>
<path d="M148.9 39.1L148.2 39.3L148.1 38.8L148.6 38.6C148.6 38.5 148.6 38.5 148.5 38.4L148.4 38.2C148.3 38.1 148.3 37.9 148.3 37.8L147.8 38L147.7 37.5L148.3 37.3C148.1 36.2 148.7 35.1 149.7 34.7H149.8C150.2 34.5 150.7 34.5 151.1 34.5V35.5C151 35.5 150.9 35.5 150.8 35.5C150.6 35.5 150.4 35.5 150.1 35.6H150C149.5 35.8 149.2 36.3 149.2 36.9L151.1 36.3V36.8L149.3 37.4C149.3 37.5 149.4 37.7 149.4 37.8C149.4 37.9 149.5 38 149.5 38.2L151.1 37.7L151.2 38.2L149.8 38.7C150.1 39.4 150.7 39.7 151.3 39.5C151.3 39.5 151.3 39.5 151.4 39.5C151.7 39.4 152 39.2 152.3 39L152.9 39.8C152.5 40.1 152.1 40.3 151.6 40.5C150.8 40.9 149.7 40.6 148.9 39.1Z" fill="black"/>
<path d="M69.8 89.2998C67.9 89.2998 66.3 87.6998 66.3 85.7998C66.3 83.8998 67.9 82.2998 69.8 82.2998C71.7 82.2998 73.3 83.8998 73.3 85.7998C73.3 87.6998 71.7 89.2998 69.8 89.2998ZM69.8 84.2998C69 84.2998 68.3 84.9998 68.3 85.7998C68.3 86.5998 69 87.2998 69.8 87.2998C70.6 87.2998 71.3 86.5998 71.3 85.7998C71.3 84.9998 70.6 84.2998 69.8 84.2998Z" fill="#BEBEBE"/>
<path d="M91.3999 63.5C89.4999 63.5 87.8999 61.9 87.8999 60C87.8999 58.1 89.4999 56.5 91.3999 56.5C93.2999 56.5 94.8999 58.1 94.8999 60C94.8999 61.9 93.2999 63.5 91.3999 63.5ZM91.3999 58.5C90.5999 58.5 89.8999 59.2 89.8999 60C89.8999 60.8 90.5999 61.5 91.3999 61.5C92.1999 61.5 92.8999 60.8 92.8999 60C92.8999 59.2 92.1999 58.5 91.3999 58.5Z" fill="#BEBEBE"/>
<path d="M111.1 79.2998C109.2 79.2998 107.6 77.6998 107.6 75.7998C107.6 73.8998 109.2 72.2998 111.1 72.2998C113 72.2998 114.6 73.8998 114.6 75.7998C114.6 77.6998 113 79.2998 111.1 79.2998ZM111.1 74.2998C110.3 74.2998 109.6 74.9998 109.6 75.7998C109.6 76.5998 110.3 77.2998 111.1 77.2998C111.9 77.2998 112.6 76.5998 112.6 75.7998C112.6 74.9998 111.9 74.2998 111.1 74.2998Z" fill="#BEBEBE"/>
</svg>
