<svg width="190" height="139" viewBox="0 0 190 139" fill="none" xmlns="http://www.w3.org/2000/svg">
<path d="M91.4192 86.319H90.0192L90.2192 85.419H91.2192C91.2192 85.319 91.2192 85.219 91.2192 85.119V84.719C91.2192 84.419 91.2192 84.119 91.2192 83.919H89.9192L90.1192 83.019H91.3192C91.7192 81.019 93.5192 79.519 95.6192 79.519C95.7192 79.519 95.7192 79.519 95.8192 79.519C95.8192 79.519 95.8192 79.519 95.9192 79.519C96.8192 79.519 97.7192 79.719 98.5192 80.019L97.9192 81.719C97.8192 81.619 97.6192 81.619 97.4192 81.519C97.0192 81.419 96.6192 81.319 96.1192 81.319C96.0192 81.319 96.0192 81.319 95.9192 81.319C94.8192 81.319 93.9192 82.019 93.6192 83.019H97.5192L97.3192 83.919H93.5192C93.5192 84.119 93.4192 84.419 93.4192 84.719C93.4192 84.919 93.4192 85.219 93.4192 85.419H96.7192L96.5192 86.319H93.5192C93.6192 87.619 94.6192 88.619 95.9192 88.619H96.0192H96.1192H96.2192C96.9192 88.619 97.5192 88.519 98.2192 88.319L98.7192 90.019C97.9192 90.319 96.9192 90.519 95.9192 90.519C93.9192 90.419 91.9192 89.419 91.4192 86.319Z" fill="#292929"/>
<path d="M133.219 69.219C128.619 52.419 117.519 41.919 102.019 39.619C100.519 39.419 99.2191 39.319 97.9191 39.319C97.2191 39.319 96.6191 39.219 95.9191 39.219V38.319V36.019C95.9191 35.419 95.5191 35.019 94.9191 35.019C94.4191 35.019 93.9191 35.519 93.9191 36.019V38.319V39.219C93.3191 39.219 92.7191 39.219 92.2191 39.319C90.8191 39.319 89.5191 39.419 88.0191 39.619C82.6191 40.419 77.7191 42.219 73.4191 44.919L73.9191 46.919C78.0191 44.119 82.8191 42.319 88.2191 41.519C89.6191 41.319 90.9191 41.219 92.2191 41.219C92.7191 41.219 93.3191 41.219 93.8191 41.119C94.4191 41.119 95.1191 41.119 95.7191 41.119C96.3191 41.119 96.9191 41.119 97.6191 41.219C98.9191 41.219 100.119 41.319 101.519 41.519C115.619 43.519 125.919 53.019 130.619 68.019C122.019 66.619 117.319 67.419 110.819 71.419C109.119 70.019 104.119 66.319 95.8191 66.119C95.5191 66.119 95.2191 66.119 94.9191 66.119C94.5191 66.119 94.2191 66.119 93.9191 66.119C85.5191 66.419 80.5191 70.119 78.9191 71.519C77.4191 70.819 73.2191 69.019 70.2191 68.419C68.6191 68.119 66.7191 68.019 64.8191 68.019C62.8191 68.019 60.8191 68.119 59.2191 68.319C61.6191 60.519 65.5191 54.219 70.6191 49.619C70.6191 49.519 70.5191 49.519 70.5191 49.419L70.0191 47.419C64.0191 52.619 59.5191 59.919 56.9191 69.219C56.8191 69.519 56.9191 69.819 57.1191 70.119C57.3191 70.319 57.6191 70.519 57.9191 70.519C57.9191 70.519 58.0191 70.519 58.2191 70.519C63.0191 70.019 67.3191 70.019 69.9191 70.519C73.4191 71.219 78.7191 73.719 78.8191 73.819C79.2191 74.019 79.7191 73.919 79.9191 73.619C80.0191 73.519 84.8191 68.719 94.0191 68.319V71.019C86.8191 71.519 81.0191 77.619 81.0191 84.919C81.0191 92.219 86.7191 98.319 94.0191 98.819V102.719C94.0191 104.519 92.6191 105.919 91.0191 105.919C89.3191 105.919 88.0191 104.519 88.0191 102.719C88.0191 102.119 87.6191 101.719 87.0191 101.719C86.5191 101.719 86.0191 102.219 86.0191 102.719C86.0191 105.619 88.2191 108.019 91.0191 108.019C93.8191 108.019 96.0191 105.619 96.0191 102.719V98.819C103.319 98.319 109.119 92.319 109.119 84.819C109.119 77.419 103.319 71.319 96.0191 70.819V68.019C105.219 68.319 110.119 73.219 110.219 73.319C110.419 73.519 110.719 73.619 110.919 73.619C111.119 73.619 111.319 73.619 111.419 73.419C118.219 69.219 122.719 68.519 132.119 70.219C132.419 70.319 132.819 70.119 133.019 69.919C133.219 69.819 133.319 69.519 133.219 69.219ZM107.219 84.919C107.219 91.619 101.819 97.019 95.1191 97.019C88.4191 97.019 83.0191 91.519 83.0191 84.919C83.0191 78.219 88.4191 72.819 95.1191 72.819C101.719 72.819 107.219 78.219 107.219 84.919Z" fill="#292929"/>
<path fill-rule="evenodd" clip-rule="evenodd" d="M67.9192 28.7192C67.8192 28.2192 67.2192 27.9192 66.7192 28.0192C66.2192 28.2192 65.9192 28.7192 66.0192 29.3192L67.6192 35.0192C67.7192 35.5192 68.3192 35.8192 68.8192 35.7192C69.3192 35.6192 69.6192 35.0192 69.5192 34.5192L67.9192 28.7192ZM86.7192 28.0192C87.2192 27.9192 87.8192 28.2192 87.9192 28.7192L88.9192 32.6192C89.0192 33.1192 88.7192 33.7192 88.2192 33.8192C87.7192 34.0192 87.2192 33.7192 87.0192 33.1192L86.0192 29.2192C85.9192 28.7192 86.2192 28.2192 86.7192 28.0192ZM82.7192 32.0192C83.2192 31.9192 83.8192 32.2192 83.9192 32.7192L84.9192 36.6192C85.0192 37.1192 84.7192 37.7192 84.2192 37.8192C83.7192 38.0192 83.2192 37.7192 83.0192 37.1192L82.0192 33.2192C81.9192 32.7192 82.2192 32.2192 82.7192 32.0192ZM74.9192 34.7192C74.8192 34.2192 74.2192 33.9192 73.7192 34.0192C73.2192 34.2192 72.9192 34.7192 73.0192 35.3192L74.6192 41.0192C74.7192 41.5192 75.3192 41.8192 75.8192 41.7192C76.3192 41.6192 76.6192 41.0192 76.5192 40.5192L74.9192 34.7192ZM76.7192 28.0192C77.2192 27.9192 77.8192 28.2192 77.9192 28.7192L79.5192 34.5192C79.6192 35.0192 79.3192 35.6192 78.8192 35.7192C78.3192 35.8192 77.7192 35.5192 77.6192 35.0192L76.0192 29.3192C75.9192 28.7192 76.2192 28.2192 76.7192 28.0192ZM56.7192 41.0192C57.2192 40.9192 57.8192 41.2192 57.9192 41.7192L59.5192 47.5192C59.6192 48.0192 59.3192 48.6192 58.8192 48.7192C58.3192 48.8192 57.7192 48.5192 57.6192 48.0192L56.0192 42.3192C55.9192 41.7192 56.2192 41.2192 56.7192 41.0192ZM65.0192 36.7192C64.8192 36.2192 64.3192 35.9192 63.7192 36.0192C63.2192 36.2192 62.9192 36.7192 63.0192 37.3192L64.7192 43.0192C64.8192 43.5192 65.4192 43.8192 65.9192 43.7192C66.4192 43.6192 66.7192 43.0192 66.6192 42.5192L65.0192 36.7192Z" fill="#BEBEBE"/>
<path fill-rule="evenodd" clip-rule="evenodd" d="M70.8192 42.0194C71.3192 41.8194 71.9192 42.2194 72.0192 42.7194L73.6192 48.5194C73.8192 49.0194 73.4192 49.6194 72.9192 49.7194C72.4192 49.9194 71.8192 49.5194 71.7192 49.0194L70.1192 43.2194C69.9192 42.7194 70.3192 42.1194 70.8192 42.0194ZM62.9191 44.9196C62.8191 44.4196 62.2191 44.0196 61.7191 44.2196C61.2191 44.3196 60.8191 44.9196 61.0191 45.4196L62.6191 51.2196C62.7191 51.7196 63.3191 52.1196 63.8191 51.9196C64.3191 51.8196 64.7191 51.2196 64.5191 50.7196L62.9191 44.9196ZM80.5191 53.7196L78.9191 47.9196C78.8191 47.4196 78.2191 47.0196 77.7191 47.2196C77.2191 47.3196 76.8191 47.9196 77.0191 48.4196L78.6191 54.2196C78.7191 54.7196 79.3191 55.1196 79.8191 54.9196C80.3191 54.8196 80.6191 54.2196 80.5191 53.7196Z" fill="#FF0000"/>
</svg>
